# File created by Blade
# Date/Time:  Fri Jan 16 19:18:57 2015
# Frame Rate: 120.000 fps
#------------------------------------------------------
:FULLY-SPECIFIED
:DEGREES
277
root 19.892199 35.796488 -22.044141 -168.250767 0.184446 -179.909437
Spine -26.097580 2.168052 0.582235
Head 19.985238 -1.117568 -7.942728
LeftShoulder -16.068490 -54.416355 50.159128
LeftArm 29.960968 -40.989730 2.704913
LeftForeArm -65.377609 -0.000000 85.808932
LeftHand 1.876860 -0.000000 -16.805055
LeftHandThumb1 -26.253704 0.000000 33.147579
RightShoulder -14.107731 27.264973 -60.946922
RightArm 138.387587 67.247073 98.998998
RightForeArm 47.754328 0.000000 113.240205
RightHand 12.535285 -0.000000 3.678279
RightHandThumb1 -24.326973 -0.000000 -32.862282
LeftUpLeg -3.042354 9.467687 -1.270626
LeftLeg -6.727941 -0.000000 0.000000
LeftFoot -19.098705 25.455757 -17.860709
LeftToeBase 23.865217 -0.000000 -0.000000
RightUpLeg -4.552715 -4.662770 -0.185000
RightLeg -2.308456 -0.000000 0.000000
RightFoot -21.208862 -24.797748 18.298363
RightToeBase 22.496218 -0.000000 -0.000000
278
root 19.892664 35.796000 -22.048462 -168.275111 0.163989 -179.944784
Spine -26.116347 2.195174 0.572093
Head 20.068077 -1.133814 -8.174599
LeftShoulder -16.118175 -54.186994 49.854587
LeftArm 29.807071 -40.948537 2.704952
LeftForeArm -65.341081 -0.000000 86.040591
LeftHand 1.937053 -0.000000 -16.381872
LeftHandThumb1 -26.253704 0.000000 33.147579
RightShoulder -14.130970 27.706065 -61.371541
RightArm 137.111167 67.036849 97.831118
RightForeArm 47.880814 0.000000 113.521771
RightHand 12.532202 -0.000000 3.793347
RightHandThumb1 -24.326973 -0.000000 -32.862282
LeftUpLeg -3.010680 9.447715 -1.294772
LeftLeg -6.732883 -0.000000 0.000000
LeftFoot -19.088857 25.440876 -17.892474
LeftToeBase 23.865274 -0.000000 -0.000000
RightUpLeg -4.526960 -4.660144 -0.220596
RightLeg -2.291292 -0.000000 0.000000
RightFoot -21.206715 -24.831541 18.263193
RightToeBase 22.359426 -0.000000 -0.000000
279
root 19.895220 35.795439 -22.051003 -168.292742 0.132173 -179.969862
Spine -26.139656 2.226769 0.570948
Head 20.141938 -1.153822 -8.426804
LeftShoulder -16.127089 -53.906445 49.475560
LeftArm 29.722497 -40.990604 2.657026
LeftForeArm -65.390606 0.000000 86.254488
LeftHand 1.863349 -0.000000 -16.135581
LeftHandThumb1 -26.253704 0.000000 33.147579
RightShoulder -14.115856 27.879331 -61.652026
RightArm 136.540460 66.802564 97.216318
RightForeArm 47.984120 -0.000000 113.685027
RightHand 12.558595 0.000000 3.811307
RightHandThumb1 -24.326973 -0.000000 -32.862282
LeftUpLeg -3.014877 9.462812 -1.309378
LeftLeg -6.684879 -0.000000 0.000000
LeftFoot -19.074695 25.378181 -17.872400
LeftToeBase 23.785254 -0.000000 -0.000000
RightUpLeg -4.503655 -4.631139 -0.238673
RightLeg -2.287076 -0.000000 0.000000
RightFoot -21.271402 -24.856834 18.334417
RightToeBase 22.461874 -0.000000 -0.000000
280
root 19.897496 35.795607 -22.054077 -168.330749 0.106524 -179.994841
Spine -26.137883 2.265628 0.572565
Head 20.229329 -1.196417 -8.726458
LeftShoulder -16.092244 -53.574798 49.025498
LeftArm 29.657735 -41.090812 2.626585
LeftForeArm -65.389104 -0.000000 86.494196
LeftHand 1.776232 -0.000000 -15.831163
LeftHandThumb1 -26.253704 0.000000 33.147579
RightShoulder -14.054284 27.622775 -61.717439
RightArm 136.926155 66.530926 97.314739
RightForeArm 47.929698 -0.000000 113.734154
RightHand 12.808140 -0.000000 3.792078
RightHandThumb1 -24.326973 -0.000000 -32.862282
LeftUpLeg -2.981285 9.461603 -1.323354
LeftLeg -6.677698 -0.000000 0.000000
LeftFoot -19.079599 25.356403 -17.922748
LeftToeBase 23.815090 -0.000000 -0.000000
RightUpLeg -4.441453 -4.563215 -0.266450
RightLeg -2.314283 -0.000000 0.000000
RightFoot -21.302813 -24.996399 18.323614
RightToeBase 22.378263 -0.000000 -0.000000
281
root 19.899601 35.794883 -22.057659 -168.356606 0.090057 -180.023424
Spine -26.143535 2.308395 0.542374
Head 20.318003 -1.299663 -9.011046
LeftShoulder -16.066662 -53.283410 48.663751
LeftArm 29.530196 -41.172102 2.627022
LeftForeArm -65.452314 -0.000000 86.723695
LeftHand 1.750790 -0.000000 -15.509850
LeftHandThumb1 -26.253704 0.000000 33.147579
RightShoulder -14.086075 27.794866 -61.987522
RightArm 136.212812 66.323846 96.559200
RightForeArm 48.081318 -0.000000 113.899850
RightHand 12.710344 -0.000000 3.762745
RightHandThumb1 -24.326973 -0.000000 -32.862282
LeftUpLeg -2.959474 9.472204 -1.342780
LeftLeg -6.663366 -0.000000 0.000000
LeftFoot -19.069299 25.322722 -17.931407
LeftToeBase 23.795086 -0.000000 -0.000000
RightUpLeg -4.416358 -4.568441 -0.290862
RightLeg -2.299475 -0.000000 0.000000
RightFoot -21.342599 -24.977922 18.309908
RightToeBase 22.510276 -0.000000 -0.000000
282
root 19.901746 35.794750 -22.060850 -168.393310 0.073771 -180.049538
Spine -26.141042 2.332587 0.535824
Head 20.424353 -1.437751 -9.329927
LeftShoulder -16.079709 -52.949883 48.305139
LeftArm 29.474892 -41.301151 2.545098
LeftForeArm -65.505100 -0.000000 86.957292
LeftHand 1.662880 -0.000000 -15.340524
LeftHandThumb1 -26.253704 0.000000 33.147579
RightShoulder -13.994965 27.480839 -61.968419
RightArm 136.728753 66.136233 96.724658
RightForeArm 48.210903 -0.000000 113.928048
RightHand 12.816280 -0.000000 3.745720
RightHandThumb1 -24.326973 -0.000000 -32.862282
LeftUpLeg -2.924215 9.463596 -1.353764
LeftLeg -6.647928 -0.000000 0.000000
LeftFoot -19.059322 25.283999 -17.954469
LeftToeBase 23.723980 -0.000000 -0.000000
RightUpLeg -4.387835 -4.580792 -0.314155
RightLeg -2.264890 -0.000000 0.000000
RightFoot -21.366893 -25.026859 18.290916
RightToeBase 22.360250 -0.000000 -0.000000
